<?xml version="1.0" encoding="UTF-8" standalone="no"?>
<!DOCTYPE svg PUBLIC "-//W3C//DTD SVG 1.1//EN"
 "http://www.w3.org/Graphics/SVG/1.1/DTD/svg11.dtd">
<!-- Generated by graphviz version 2.40.1 (20161225.0304)
 -->
<!-- Title: SADFace Pages: 1 -->
<svg width="346pt" height="402pt"
 viewBox="0.00 0.00 346.04 402.00" xmlns="http://www.w3.org/2000/svg" xmlns:xlink="http://www.w3.org/1999/xlink">
<g id="graph0" class="graph" transform="scale(1 1) rotate(0) translate(4 398)">
<title>SADFace</title>
<polygon fill="#ffffff" stroke="transparent" points="-4,4 -4,-398 342.04,-398 342.04,4 -4,4"/>
<!-- ae3f0c7f&#45;9f69&#45;4cab&#45;9db3&#45;3b9c46f56e09 -->
<g id="node1" class="node">
<title>ae3f0c7f&#45;9f69&#45;4cab&#45;9db3&#45;3b9c46f56e09</title>
<path fill="none" stroke="#000000" d="M245.3009,-64C245.3009,-64 102.6581,-64 102.6581,-64 96.6581,-64 90.6581,-58 90.6581,-52 90.6581,-52 90.6581,-12 90.6581,-12 90.6581,-6 96.6581,0 102.6581,0 102.6581,0 245.3009,0 245.3009,0 251.3009,0 257.3009,-6 257.3009,-12 257.3009,-12 257.3009,-52 257.3009,-52 257.3009,-58 251.3009,-64 245.3009,-64"/>
<text text-anchor="middle" x="173.9795" y="-48.8" font-family="Times,serif" font-size="14.00" fill="#000000">The &#39;Hang Back&#39; campaign</text>
<text text-anchor="middle" x="173.9795" y="-34.8" font-family="Times,serif" font-size="14.00" fill="#000000">video should not have</text>
<text text-anchor="middle" x="173.9795" y="-20.8" font-family="Times,serif" font-size="14.00" fill="#000000">been published, and</text>
<text text-anchor="middle" x="173.9795" y="-6.8" font-family="Times,serif" font-size="14.00" fill="#000000">should be withdrawn.</text>
</g>
<!-- 70447169&#45;9264&#45;41dc&#45;b8e9&#45;50523f8368c1 -->
<g id="node2" class="node">
<title>70447169&#45;9264&#45;41dc&#45;b8e9&#45;50523f8368c1</title>
<polygon fill="#a2cd5a" stroke="#000000" points="173.9795,-136 122.3531,-118 173.9795,-100 225.6059,-118 173.9795,-136"/>
<text text-anchor="middle" x="173.9795" y="-113.8" font-family="Times,serif" font-size="14.00" fill="#000000">support</text>
</g>
<!-- 70447169&#45;9264&#45;41dc&#45;b8e9&#45;50523f8368c1&#45;&gt;ae3f0c7f&#45;9f69&#45;4cab&#45;9db3&#45;3b9c46f56e09 -->
<g id="edge1" class="edge">
<title>70447169&#45;9264&#45;41dc&#45;b8e9&#45;50523f8368c1&#45;&gt;ae3f0c7f&#45;9f69&#45;4cab&#45;9db3&#45;3b9c46f56e09</title>
<path fill="none" stroke="#000000" d="M173.9795,-99.7616C173.9795,-92.2386 173.9795,-83.1818 173.9795,-74.1733"/>
<polygon fill="#000000" stroke="#000000" points="177.4796,-74.1073 173.9795,-64.1073 170.4796,-74.1073 177.4796,-74.1073"/>
</g>
<!-- f129934f&#45;53d2&#45;49f6&#45;8feb&#45;9afaff9aabcf -->
<g id="node3" class="node">
<title>f129934f&#45;53d2&#45;49f6&#45;8feb&#45;9afaff9aabcf</title>
<path fill="none" stroke="#000000" d="M157.9385,-222C157.9385,-222 12.0205,-222 12.0205,-222 6.0205,-222 .0205,-216 .0205,-210 .0205,-210 .0205,-184 .0205,-184 .0205,-178 6.0205,-172 12.0205,-172 12.0205,-172 157.9385,-172 157.9385,-172 163.9385,-172 169.9385,-178 169.9385,-184 169.9385,-184 169.9385,-210 169.9385,-210 169.9385,-216 163.9385,-222 157.9385,-222"/>
<text text-anchor="middle" x="84.9795" y="-206.8" font-family="Times,serif" font-size="14.00" fill="#000000">The &#39;Hang Back&#39; campaign</text>
<text text-anchor="middle" x="84.9795" y="-192.8" font-family="Times,serif" font-size="14.00" fill="#000000">was the wrong campaign to</text>
<text text-anchor="middle" x="84.9795" y="-178.8" font-family="Times,serif" font-size="14.00" fill="#000000">run</text>
</g>
<!-- f129934f&#45;53d2&#45;49f6&#45;8feb&#45;9afaff9aabcf&#45;&gt;70447169&#45;9264&#45;41dc&#45;b8e9&#45;50523f8368c1 -->
<g id="edge2" class="edge">
<title>f129934f&#45;53d2&#45;49f6&#45;8feb&#45;9afaff9aabcf&#45;&gt;70447169&#45;9264&#45;41dc&#45;b8e9&#45;50523f8368c1</title>
<path fill="none" stroke="#000000" d="M113.6295,-171.5691C126.0158,-160.5745 140.2866,-147.9071 151.8403,-137.6516"/>
<polygon fill="#000000" stroke="#000000" points="154.1931,-140.2432 159.3484,-130.9872 149.5462,-135.0081 154.1931,-140.2432"/>
</g>
<!-- 6cd219cc&#45;3203&#45;4602&#45;88bd&#45;d3639f86fb37 -->
<g id="node4" class="node">
<title>6cd219cc&#45;3203&#45;4602&#45;88bd&#45;d3639f86fb37</title>
<path fill="none" stroke="#000000" d="M326.1006,-222C326.1006,-222 199.8583,-222 199.8583,-222 193.8583,-222 187.8583,-216 187.8583,-210 187.8583,-210 187.8583,-184 187.8583,-184 187.8583,-178 193.8583,-172 199.8583,-172 199.8583,-172 326.1006,-172 326.1006,-172 332.1006,-172 338.1006,-178 338.1006,-184 338.1006,-184 338.1006,-210 338.1006,-210 338.1006,-216 332.1006,-222 326.1006,-222"/>
<text text-anchor="middle" x="262.9795" y="-206.8" font-family="Times,serif" font-size="14.00" fill="#000000">The &#39;Hang Back&#39; advert</text>
<text text-anchor="middle" x="262.9795" y="-192.8" font-family="Times,serif" font-size="14.00" fill="#000000">does not clearly express</text>
<text text-anchor="middle" x="262.9795" y="-178.8" font-family="Times,serif" font-size="14.00" fill="#000000">the intended message</text>
</g>
<!-- 6cd219cc&#45;3203&#45;4602&#45;88bd&#45;d3639f86fb37&#45;&gt;70447169&#45;9264&#45;41dc&#45;b8e9&#45;50523f8368c1 -->
<g id="edge3" class="edge">
<title>6cd219cc&#45;3203&#45;4602&#45;88bd&#45;d3639f86fb37&#45;&gt;70447169&#45;9264&#45;41dc&#45;b8e9&#45;50523f8368c1</title>
<path fill="none" stroke="#000000" d="M234.3294,-171.5691C221.9432,-160.5745 207.6723,-147.9071 196.1187,-137.6516"/>
<polygon fill="#000000" stroke="#000000" points="198.4128,-135.0081 188.6106,-130.9872 193.7659,-140.2432 198.4128,-135.0081"/>
</g>
<!-- 45199aa0&#45;1556&#45;4b94&#45;8940&#45;3ba30aa08e38 -->
<g id="node5" class="node">
<title>45199aa0&#45;1556&#45;4b94&#45;8940&#45;3ba30aa08e38</title>
<polygon fill="#ee2c2c" stroke="#000000" points="84.9795,-294 33.3653,-276 84.9795,-258 136.5937,-276 84.9795,-294"/>
<text text-anchor="middle" x="84.9795" y="-271.8" font-family="Times,serif" font-size="14.00" fill="#000000">conflict</text>
</g>
<!-- 45199aa0&#45;1556&#45;4b94&#45;8940&#45;3ba30aa08e38&#45;&gt;f129934f&#45;53d2&#45;49f6&#45;8feb&#45;9afaff9aabcf -->
<g id="edge4" class="edge">
<title>45199aa0&#45;1556&#45;4b94&#45;8940&#45;3ba30aa08e38&#45;&gt;f129934f&#45;53d2&#45;49f6&#45;8feb&#45;9afaff9aabcf</title>
<path fill="none" stroke="#000000" d="M84.9795,-257.6772C84.9795,-250.0766 84.9795,-240.9908 84.9795,-232.1933"/>
<polygon fill="#000000" stroke="#000000" points="88.4796,-232.1046 84.9795,-222.1046 81.4796,-232.1047 88.4796,-232.1046"/>
</g>
<!-- 51775eb3&#45;70c0&#45;4d8e&#45;95a5&#45;b34ffba8a280 -->
<g id="node6" class="node">
<title>51775eb3&#45;70c0&#45;4d8e&#45;95a5&#45;b34ffba8a280</title>
<path fill="none" stroke="#000000" d="M148.7698,-394C148.7698,-394 21.1892,-394 21.1892,-394 15.1892,-394 9.1892,-388 9.1892,-382 9.1892,-382 9.1892,-342 9.1892,-342 9.1892,-336 15.1892,-330 21.1892,-330 21.1892,-330 148.7698,-330 148.7698,-330 154.7698,-330 160.7698,-336 160.7698,-342 160.7698,-342 160.7698,-382 160.7698,-382 160.7698,-388 154.7698,-394 148.7698,-394"/>
<text text-anchor="middle" x="84.9795" y="-378.8" font-family="Times,serif" font-size="14.00" fill="#000000">Road users have a</text>
<text text-anchor="middle" x="84.9795" y="-364.8" font-family="Times,serif" font-size="14.00" fill="#000000">responsibility to make</text>
<text text-anchor="middle" x="84.9795" y="-350.8" font-family="Times,serif" font-size="14.00" fill="#000000">our roads safer by being</text>
<text text-anchor="middle" x="84.9795" y="-336.8" font-family="Times,serif" font-size="14.00" fill="#000000">more vigilant.</text>
</g>
<!-- 51775eb3&#45;70c0&#45;4d8e&#45;95a5&#45;b34ffba8a280&#45;&gt;45199aa0&#45;1556&#45;4b94&#45;8940&#45;3ba30aa08e38 -->
<g id="edge5" class="edge">
<title>51775eb3&#45;70c0&#45;4d8e&#45;95a5&#45;b34ffba8a280&#45;&gt;45199aa0&#45;1556&#45;4b94&#45;8940&#45;3ba30aa08e38</title>
<path fill="none" stroke="#000000" d="M84.9795,-329.9768C84.9795,-321.609 84.9795,-312.647 84.9795,-304.4774"/>
<polygon fill="#000000" stroke="#000000" points="88.4796,-304.3107 84.9795,-294.3108 81.4796,-304.3108 88.4796,-304.3107"/>
</g>
</g>
</svg>
